<svg width="200" height="200" viewBox="0 0 240 240" fill="none" xmlns="http://www.w3.org/2000/svg"><g clip-path="url(#a)"><path d="M106.648 219.995h-3.388c-.322-.049-.644-.106-.968-.144-2.005-.24-4.035-.352-6.013-.74-4.708-.919-7.17-4.133-6.797-8.79.151-1.894.448-3.78.74-5.659.44-2.824.933-5.641 1.406-8.476l-12.562-2.874c-.267 2.062-.492 4.134-.81 6.191-.379 2.46-.711 4.938-1.292 7.353-.876 3.638-2.97 6.327-6.809 7.099-1.582.319-3.305.381-4.894.124a99.132 99.132 0 0 1-9.775-2.087c-6.161-1.649-9.145-5.821-8.782-12.183.223-3.925.868-7.795 2.025-11.567.663-2.159 1.545-4.221 2.779-6.146-.136-.102-.225-.178-.321-.24-6.544-4.227-11.616-9.881-15.799-16.374-7.686-11.931-11.735-25.067-12.866-39.156-.087-1.096-.181-2.191-.272-3.285v-6.492c.038-.252.101-.503.111-.757.154-3.787.599-7.54 1.317-11.26 1.837-9.515 5.344-18.32 11.139-26.154.173-.233.247-.656.171-.938-.884-3.3-1.5-6.658-1.686-10.06-.233-4.245-.342-8.5-.359-12.752-.042-10.18.993-20.267 2.834-30.275.343-1.864 1.425-3.071 3.138-3.762.453-.183.934-.293 1.403-.438h1.693c1.797.32 3.071 1.433 4.19 2.777.06.072.128.139.191.206 7.037 7.391 14.072 14.785 21.114 22.173 2.259 2.371 4.46 4.785 6.007 7.706.235.443.495.283.812.184 2.688-.844 5.356-1.753 8.069-2.503 5.584-1.545 11.258-2.606 17.055-2.911 1.525-.081 3.057-.06 4.574-.206 3.671-.352 7.334-.79 11.005-1.153.545-.053.97-.191 1.379-.562 6.052-5.465 12.698-10.074 19.982-13.748a8.001 8.001 0 0 1 2.186-.738c3.034-.533 5.603 1.191 6 4.003a1517.61 1517.61 0 0 1 1.72 12.57c.053.405.215.552.602.619.832.144 1.656.339 2.482.522 10.242 2.265 20.029 5.763 29.21 10.871 10.993 6.114 20.369 14.062 27.475 24.525 6.5 9.572 10.458 20.077 11.399 31.661.072.886.171 1.77.258 2.656v5.787c-.138 1.444-.262 2.891-.413 4.335-.874 8.408-3.245 16.383-6.992 23.95-4.487 9.059-10.708 16.773-18.292 23.414-.431.378-.577.757-.586 1.324-.034 2.538-.051 5.082-.216 7.614-.236 3.612-.518 7.223-.929 10.819-.282 2.465-.686 4.935-1.275 7.342-.627 2.561-2.203 4.49-4.681 5.577-1.643.72-3.377.975-5.154 1.004-3.579.06-7.05-.693-10.532-1.381-1.428-.282-2.401-1.113-2.821-2.465a7.542 7.542 0 0 1-.327-2.559c.096-1.923.356-3.837.498-5.76.136-1.822.206-3.651.312-5.567-1.544.594-3.01 1.146-4.461 1.733-.136.056-.242.324-.26.503-.26 2.689-.466 5.386-.762 8.072-.257 2.339-.666 4.654-1.659 6.817-1.787 3.894-4.774 6.129-9.099 6.267-2.462.077-4.938-.051-7.398-.213-1.736-.114-3.438-.513-5.002-1.349-1.75-.936-2.871-2.368-2.883-4.367-.013-2.391.166-4.785.331-7.173.07-1.015.317-2.018.463-2.902h-17.977c-.421 2.882-.747 5.659-1.25 8.401-.471 2.564-1.123 5.094-2.371 7.421-1.166 2.173-2.943 3.564-5.346 4.136-.661.156-1.329.275-1.992.411ZM97.002 61.541c-.576-.523-1.159-1.089-1.784-1.604-.202-.166-.53-.32-.765-.279-2.079.378-4.165.74-6.22 1.222-10.985 2.575-21.189 7.013-30.809 12.879-5.327 3.248-9.795 7.366-13.252 12.56-5.604 8.426-8.175 17.82-8.797 27.822-.446 7.179.163 14.282 1.698 21.304 1.73 7.916 4.552 15.399 9.042 22.188 3.983 6.02 8.943 11.007 15.445 14.32 3.822 1.948 7.881 3.284 11.928 4.665 15.393 5.252 31.143 8.579 47.451 9.018 9.369.253 18.658-.347 27.807-2.48 15.694-3.658 29.099-11.319 39.925-23.28 8.49-9.381 13.673-20.327 14.841-33.033.8-8.713-.523-17.111-3.913-25.166-4.136-9.834-10.817-17.661-19.248-24.06-8.554-6.492-18.163-10.827-28.462-13.715-1.277-.357-2.566-.673-3.845-1.006-.19.602.017.846.508 1.017a91.755 91.755 0 0 1 3.894 1.45c6.715 2.675 13.124 5.966 19.337 9.651 1.086.644 1.856 1.53 2.04 2.809.279 1.926-.428 3.485-1.985 4.598-1.517 1.085-3.08.877-4.626-.047-4.742-2.836-9.609-5.436-14.661-7.679-1.24-.55-2.497-1.064-3.821-1.628.034.747.096 1.378.086 2.007-.027 1.861-1.109 3.297-2.856 3.737-1.847.465-3.482.01-4.908-1.248-.555-.49-.758-1.044-.663-1.805.669-5.347.429-10.705.072-16.059-.283-4.27-.644-8.534-.902-12.806-.202-3.337-3.228-5.03-6.139-3.374-4.807 2.733-9.183 6.042-13.185 9.852-5.721 5.448-10.466 11.686-14.857 18.223-1.715 2.554-.797 5.201.95 6.7.153.131.302.265.46.404-1.658 1.277-4.252 1.344-6.505.052-3.241-1.859-4.673-4.564-3.513-8.374-.211.045-.346.072-.476.104-2.851.7-5.688 1.458-8.554 2.086-2.995.656-6.029 1.012-9.104.647-1.089-.129-1.945-.617-2.297-1.696-.361-1.107.042-2.034.884-2.779.298-.264.631-.49.961-.717 3.361-2.307 7.131-3.668 11.039-4.673 2.586-.661 5.199-1.21 7.779-1.805Zm-51.559 6.055c5.651-4.532 12.102-7.462 18.475-10.304L45.148 37.69c-1.155 4.448-.938 24.762.295 29.906Zm23.626 122.829c-3.654-1.488-7.23-2.945-10.834-4.411-.254 1.319-.528 2.695-.78 4.074-.431 2.377-.899 4.75-1.258 7.138-.468 3.112.768 4.633 3.891 5.024 1.835.23 3.661.535 5.493.797.227.032.462.005.772.005.218-1.542.45-3.047.643-4.557.352-2.789.496-5.626 2.074-8.069Zm111.362-5.344c-.283.05-.359.045-.414.075-2.018 1.149-4.042 2.292-6.043 3.468-.195.114-.367.433-.378.664a406.437 406.437 0 0 0-.27 7.884c-.018.81.082 1.623.131 2.471h5.965l1.01-14.564Zm-38.22 20.456c1.321 0 2.562-.032 3.8.009 1.26.042 2.518.158 3.817.243.69-1.017 1.431-6.603 1.114-8.596-2.514.448-5.027.891-7.539 1.354-.141.025-.329.198-.364.334-.543 2.119-.943 4.257-.829 6.656Zm-42.577 2.712c1.428.168 2.689.28 3.939.478.702.111.972-.176 1.104-.8.361-1.72.809-3.423 1.103-5.154.233-1.373.292-2.777.429-4.183l-5.524-.782-1.052 10.441Z" fill="#d7acd2"/><path d="M97.002 61.541c-2.581.596-5.193 1.143-7.777 1.809-3.906 1.005-7.676 2.366-11.039 4.673-.329.227-.663.452-.962.717-.842.747-1.245 1.673-.884 2.779.352 1.079 1.206 1.567 2.297 1.696 3.075.364 6.109.009 9.104-.647 2.866-.627 5.703-1.386 8.554-2.086.133-.032.265-.059.476-.104-1.159 3.809.274 6.513 3.514 8.374 2.253 1.292 4.847 1.225 6.505-.052-.158-.139-.307-.274-.46-.405-1.747-1.498-2.664-4.147-.95-6.699 4.391-6.539 9.136-12.775 14.857-18.223 4.002-3.81 8.377-7.119 13.184-9.852 2.911-1.655 5.938.038 6.139 3.374.259 4.272.619 8.535.903 12.806.356 5.354.597 10.711-.072 16.059-.096.762.109 1.315.663 1.805 1.426 1.258 3.061 1.713 4.908 1.248 1.747-.44 2.829-1.876 2.856-3.737.01-.629-.052-1.26-.086-2.007 1.325.562 2.582 1.075 3.821 1.628 5.052 2.245 9.919 4.844 14.661 7.679 1.545.924 3.107 1.133 4.626.047 1.557-1.114 2.264-2.671 1.985-4.598-.184-1.278-.955-2.164-2.04-2.809-6.212-3.686-12.621-6.976-19.337-9.651a92.011 92.011 0 0 0-3.894-1.45c-.493-.171-.698-.414-.508-1.017 1.28.334 2.569.649 3.846 1.006 10.297 2.888 19.906 7.223 28.461 13.715 8.43 6.398 15.113 14.227 19.248 24.061 3.388 8.056 4.713 16.453 3.913 25.166-1.168 12.706-6.351 23.654-14.841 33.033-10.825 11.961-24.23 19.621-39.925 23.28-9.149 2.132-18.436 2.733-27.807 2.48-16.309-.44-32.059-3.767-47.451-9.018-4.047-1.381-8.106-2.716-11.928-4.665-6.502-3.314-11.461-8.3-15.444-14.32-4.492-6.789-7.312-14.272-9.042-22.188-1.534-7.02-2.144-14.124-1.698-21.304.621-10.002 3.191-19.396 8.797-27.822 3.456-5.195 7.925-9.312 13.252-12.56 9.619-5.867 19.824-10.304 30.808-12.879 2.055-.481 4.141-.844 6.22-1.222.233-.042.564.113.765.279.623.512 1.206 1.077 1.782 1.601Zm55.512 36.77c0-1.621.03-3.218-.009-4.812-.04-1.685-1.102-2.956-2.715-3.347-2.51-.608-4.556.914-4.681 3.557-.099 2.091-.107 4.184-.133 6.279-.005.426-.131.663-.54.858-6.191 2.948-10.441 7.694-12.713 14.129-1.975 5.597-1.678 11.065 1.661 16.137 2.656 4.032 6.475 6.465 11.089 7.715.403.109.707.168.717.735.081 4.468.203 8.934.309 13.402.005.183-.02.366-.034.621-.275-.065-.507-.094-.718-.176-2.01-.783-4.034-1.537-6.018-2.379-1.165-.495-2.324-.894-3.604-.797-2.909.223-5.29 2.364-5.966 5.357-.586 2.589.565 4.963 3.164 6.473a38.046 38.046 0 0 0 12.916 4.666c.582.097.71.326.722.854.05 2.304.138 4.607.21 6.911.04 1.287.637 2.188 1.713 2.58 1.835.671 3.594-.448 3.735-2.413.07-.985.045-1.975.077-2.961.045-1.45.102-2.898.154-4.371l4.731-.349.037.691c.154 2.582.29 5.165.471 7.745.077 1.093.745 1.748 1.654 1.76.765.01 1.175-.431 1.371-1.577.51-2.986 1.03-5.971 1.475-8.968.101-.673.376-.926.98-1.126 11.604-3.845 20.243-14.423 21.453-26.428.495-4.903-.945-9.265-4.451-12.824-3.383-3.431-7.596-4.497-12.27-4.128-.831.066-1.654.203-2.483.307-.183-1.965.819-15.186 1.247-16.027 1.139.537 2.342.98 3.414 1.636 2.221 1.359 4.388 2.814 6.552 4.267 1.236.831 2.409.72 3.371-.411.856-1.007.955-2.186.258-3.321-2.336-3.8-5.564-6.589-9.636-8.384-1.178-.518-2.409-.918-3.7-1.403 0-1.022.054-2.104-.013-3.181-.079-1.263-.156-2.543-.428-3.773-.292-1.317-1.723-2.26-3.022-2.215-1.218.044-1.98.787-2.347 2.316-.143.594-.28 1.19-.376 1.792-.222 1.383-.418 2.768-.613 4.075-2.305.171-4.55.331-7.011.507ZM79.66 152.238c1.175-.113 3.529-.222 5.846-.581 6.349-.987 12.092-3.401 17.044-7.567 9.089-7.646 10.143-20.045 2.446-29.07-3.111-3.648-7.071-6.071-11.5-7.784-1.953-.755-4.027-1.091-6.022-1.664-8.285-2.388-16.55-2.42-24.732.159-10.894 3.434-17.445 10.831-19.052 22.23-.703 4.987.698 9.557 3.955 13.475 2.626 3.159 6.069 5.154 9.79 6.712 6.73 2.814 13.8 3.913 22.225 4.09Zm14.475-64.965c-2.316.01-4.29.861-5.839 2.614-2.354 2.666-2.584 6.346-.629 9.487 1.735 2.79 5.262 4.117 8.638 3.248 4.193-1.079 6.846-5.378 5.819-9.409-.364-1.433-1.285-2.468-2.297-3.475-1.575-1.571-3.446-2.403-5.691-2.465Zm-44.02 2.453c-.817.188-1.666.29-2.445.581-2.935 1.092-5.002 4.202-4.775 7.124.279 3.587 2.416 6.384 5.879 7.367 1.253.355 2.523.303 3.779-.277 1.681-.777 2.638-2.238 3.621-3.653.463-.664.727-1.522.882-2.33.133-.696-.007-1.446-.043-2.173-.2-3.733-3.123-6.507-6.898-6.639Zm78.004-32.436c-1.658.034-3.025 1.121-4.081 2.765-1.639 2.549-3.352 5.051-4.965 7.616-.594.943-1.133 1.966-1.446 3.029-.486 1.643.218 3.341 1.525 4.237 1.387.951 3.112.962 4.56-.066a8.705 8.705 0 0 0 1.703-1.572 314.022 314.022 0 0 0 5.434-6.851 16.007 16.007 0 0 0 1.623-2.557c1.538-3.074-.594-6.58-4.354-6.601ZM45.444 67.595c-1.233-5.144-1.451-25.458-.295-29.906l18.77 19.602c-6.371 2.842-12.824 5.772-18.475 10.304Zm23.627 122.829c-1.577 2.443-1.722 5.28-2.074 8.067-.191 1.51-.423 3.015-.643 4.557-.31 0-.545.029-.772-.005-1.832-.262-3.658-.567-5.493-.797-3.123-.391-4.359-1.911-3.891-5.023.359-2.389.827-4.762 1.258-7.138.25-1.379.527-2.755.78-4.074l10.834 4.413Zm111.362-5.345-1.01 14.564h-5.965c-.049-.849-.149-1.661-.131-2.471.06-2.629.158-5.256.27-7.884.01-.232.185-.55.378-.664 2.003-1.176 4.025-2.319 6.043-3.468.056-.03.131-.025.414-.075Zm-38.22 20.456c-.116-2.399.285-4.537.829-6.654.035-.138.223-.309.364-.334 2.51-.463 5.025-.906 7.538-1.354.317 1.992-.424 7.579-1.114 8.596-1.297-.086-2.555-.2-3.817-.243-1.238-.042-2.48-.01-3.8-.01Zm-42.578 2.712c.352-3.505.7-6.948 1.05-10.441l5.523.782c-.138 1.408-.196 2.811-.429 4.183-.293 1.73-.742 3.434-1.102 5.154-.131.624-.403.911-1.104.8-1.247-.198-2.51-.31-3.938-.478Z" fill="#d8b934"/><path d="m152.513 98.311 7.015-.5c.195-1.309.391-2.695.612-4.075.098-.603.233-1.198.376-1.792.367-1.528 1.129-2.273 2.347-2.316 1.299-.045 2.73.896 3.022 2.215.272 1.23.349 2.51.428 3.773.067 1.075.013 2.159.013 3.181 1.29.485 2.522.884 3.7 1.403 4.074 1.795 7.3 4.584 9.636 8.384.696 1.134.599 2.314-.259 3.321-.962 1.131-2.134 1.242-3.371.411-2.164-1.453-4.329-2.906-6.552-4.267-1.072-.656-2.275-1.099-3.414-1.636-.428.841-1.429 14.062-1.247 16.027.827-.104 1.653-.241 2.483-.307 4.673-.369 8.888.697 12.27 4.128 3.507 3.557 4.944 7.92 4.451 12.824-1.21 12.005-9.847 22.582-21.453 26.428-.604.2-.879.453-.98 1.126-.445 2.997-.965 5.982-1.475 8.968-.196 1.146-.606 1.587-1.371 1.577-.909-.012-1.577-.668-1.654-1.76-.183-2.58-.317-5.163-.471-7.745l-.037-.692-4.731.349c-.052 1.473-.109 2.921-.154 4.371-.03.987-.007 1.978-.077 2.961-.141 1.965-1.899 3.084-3.735 2.413-1.075-.393-1.673-1.294-1.713-2.58-.072-2.304-.16-4.607-.21-6.911-.012-.528-.139-.757-.722-.854a38.046 38.046 0 0 1-12.916-4.666c-2.599-1.51-3.75-3.884-3.164-6.473.676-2.995 3.057-5.136 5.966-5.357 1.28-.097 2.439.302 3.604.797 1.985.844 4.008 1.597 6.019 2.379.211.082.443.111.718.176.015-.257.038-.44.034-.621-.106-4.468-.228-8.934-.309-13.402-.01-.567-.314-.628-.716-.735-4.614-1.25-8.435-3.683-11.089-7.715-3.341-5.072-3.638-10.54-1.661-16.137 2.27-6.435 6.522-11.181 12.713-14.129.409-.195.533-.431.54-.858.025-2.092.034-4.188.133-6.279.126-2.643 2.171-4.165 4.681-3.557 1.613.389 2.676 1.661 2.715 3.347.034 1.587.005 3.184.005 4.806Zm6.665 6.921c-1.98.009-3.856.337-5.696.945-.522.173-.717.399-.713.985.025 6.16.013 12.32.012 18.48v.851c1.834-.619 3.546-1.186 5.242-1.79.147-.052.283-.354.293-.545.297-5.798.581-11.597.859-17.396.024-.486.003-.975.003-1.528Zm3.909 45.883c2.951-1.711 6.047-5.468 7.238-8.68.574-1.545.807-3.131.691-4.775-.146-2.049-1.198-2.975-3.2-2.634-1.124.191-2.205.629-3.316.924-.44.117-.571.345-.594.79-.201 3.733-.431 7.463-.649 11.196-.062 1.027-.113 2.054-.171 3.178Zm-10.522-11.508c-.117 4.939-.236 9.881-.359 14.986 1.466-.201 2.809-.366 4.141-.592.163-.027.371-.383.383-.597.253-4.383.483-8.768.708-13.153.029-.549.004-1.099.004-1.624l-4.876.98Zm-7.699-27.45c-1.648 1.525-2.844 3.29-3.403 5.435-.644 2.482-.116 4.748 1.309 6.83.52.758 1.211 1.337 2.092 1.763.002-4.742.002-9.384.002-14.028ZM79.66 152.238c-8.426-.178-15.495-1.277-22.225-4.092-3.721-1.557-7.165-3.552-9.79-6.712-3.257-3.918-4.658-8.486-3.955-13.475 1.607-11.399 8.158-18.796 19.052-22.23 8.183-2.579 16.446-2.547 24.732-.159 1.995.576 4.069.909 6.022 1.664 4.429 1.713 8.389 4.136 11.5 7.784 7.696 9.025 6.643 21.424-2.446 29.07-4.951 4.166-10.694 6.58-17.044 7.567-2.316.361-4.671.47-5.846.582Zm-1.268-11.715c2.888-.024 5.689-.3 8.411-1.124 3.376-1.022 6.48-2.54 8.903-5.189 1.664-1.821 2.564-3.958 2.176-6.453-.159-1.027-.636-2.002-.923-3.013-1.077-3.79-3.748-6.181-7.107-7.854-1.968-.98-4.085-1.663-6.134-2.485-.537-.215-1.046-.552-1.601-.659-5.757-1.112-11.415-.718-16.945 1.25-4.767 1.694-8.215 4.839-10.225 9.496-.807 1.869-1.158 3.825-.735 5.854.611 2.931 2.52 4.814 5.161 5.918 6.096 2.55 12.428 4.129 19.018 4.26Zm15.742-53.25c2.243.062 4.114.894 5.689 2.463 1.01 1.007 1.933 2.044 2.297 3.475 1.027 4.032-1.626 8.331-5.819 9.409-3.376.869-6.903-.458-8.637-3.248-1.953-3.141-1.725-6.822.629-9.487 1.55-1.752 3.525-2.602 5.84-2.612Zm-44.02 2.453c3.775.131 6.699 2.906 6.896 6.641.038.725.178 1.476.043 2.173-.154.809-.419 1.665-.882 2.33-.983 1.415-1.94 2.874-3.621 3.653-1.255.581-2.525.631-3.779.277-3.462-.982-5.599-3.78-5.879-7.367-.228-2.923 1.841-6.034 4.775-7.124.78-.292 1.629-.393 2.446-.582Zm78.004-32.436c3.762.02 5.893 3.527 4.352 6.601-.45.899-1.008 1.76-1.623 2.557a314.022 314.022 0 0 1-5.434 6.851 8.767 8.767 0 0 1-1.703 1.572c-1.448 1.025-3.173 1.015-4.56.066-1.307-.896-2.012-2.594-1.525-4.237.314-1.06.854-2.084 1.446-3.029 1.613-2.566 3.325-5.066 4.965-7.616 1.057-1.645 2.423-2.73 4.082-2.765Z" fill="#5f771b"/><path d="M159.178 105.231c0 .554.02 1.042-.003 1.528a5547.564 5547.564 0 0 1-.859 17.396c-.01.193-.146.493-.293.545-1.698.604-3.408 1.171-5.242 1.79v-.851c.002-6.159.013-12.32-.012-18.48-.002-.586.191-.814.713-.985a18.252 18.252 0 0 1 5.696-.945Zm3.909 45.883c.06-1.126.111-2.151.17-3.178.218-3.732.448-7.463.649-11.197.024-.445.154-.674.594-.79 1.109-.293 2.189-.733 3.315-.924 2.003-.341 3.055.586 3.2 2.634a11.264 11.264 0 0 1-.691 4.775c-1.19 3.212-4.285 6.968-7.237 8.68Zm-10.521-11.508 4.878-.978c0 .523.025 1.075-.004 1.624-.225 4.384-.456 8.77-.708 13.153-.012.213-.222.569-.383.597-1.332.227-2.675.391-4.141.592.121-5.107.238-10.049.357-14.988Zm-7.7-27.45v14.028c-.881-.426-1.574-1.005-2.092-1.764-1.425-2.08-1.953-4.349-1.309-6.83.557-2.146 1.754-3.911 3.401-5.434Zm-66.475 28.367c-6.591-.131-12.923-1.71-19.018-4.258-2.639-1.104-4.55-2.987-5.161-5.918-.423-2.029-.072-3.987.735-5.854 2.012-4.659 5.458-7.802 10.225-9.496 5.532-1.966 11.188-2.362 16.945-1.25.555.107 1.064.445 1.601.659 2.049.822 4.165 1.504 6.134 2.485 3.359 1.673 6.029 4.064 7.107 7.854.287 1.012.763 1.986.923 3.014.388 2.495-.512 4.631-2.176 6.453-2.423 2.651-5.527 4.168-8.903 5.189-2.72.822-5.524 1.097-8.411 1.123Zm10.415-14.733c-.054-.376-.059-1.075-.259-1.715-.668-2.131-2.022-3.684-4.226-4.242-2.087-.528-3.925.116-5.34 1.733-1.485 1.698-1.579 3.708-1.035 5.78.374 1.428.891 2.819 1.253 4.25.401 1.587 1.359 2.55 2.938 2.861 1.703.336 3.257-.059 4.243-1.534 1.373-2.05 2.262-4.321 2.426-7.134Zm-16.619.837c-.043-.389-.07-.742-.124-1.089-.45-2.906-3.592-4.923-6.297-4.047-2.994.97-4.143 4.295-2.552 7.287a3.955 3.955 0 0 1 .436 1.5c.144 1.757 1.103 3.037 2.696 3.48 1.571.436 3.233-.151 4.106-1.575 1.044-1.705 1.577-3.594 1.735-5.556Z" fill="#d8b934"/><path d="M88.805 125.79c-.165 2.814-1.054 5.084-2.425 7.136-.987 1.475-2.538 1.869-4.243 1.534-1.579-.31-2.537-1.275-2.938-2.861-.361-1.431-.877-2.822-1.253-4.25-.544-2.072-.451-4.082 1.035-5.78 1.416-1.617 3.253-2.262 5.34-1.733 2.205.557 3.559 2.111 4.226 4.242.198.637.203 1.337.257 1.713Zm-16.619.838c-.156 1.96-.691 3.851-1.735 5.557-.873 1.425-2.537 2.012-4.106 1.575-1.594-.443-2.554-1.723-2.696-3.48a3.994 3.994 0 0 0-.436-1.5c-1.591-2.992-.44-6.319 2.552-7.287 2.706-.876 5.849 1.141 6.297 4.047.052.347.079.698.124 1.087Z" fill="#833fa8"/></g><defs><clipPath id="a"><path fill="#f5f5f5" d="M22.25 20h195.47v200H22.25z"/></clipPath></defs></svg>